<svg width="106" height="106" viewBox="0 0 106 106" fill="none" xmlns="http://www.w3.org/2000/svg">
<circle cx="53" cy="53" r="53" fill="#16222E"/>
<path d="M14.6406 65V39.5455H25.6776C27.6165 39.5455 29.2447 39.8065 30.5621 40.3285C31.8879 40.8505 32.8864 41.5879 33.5575 42.5408C34.237 43.4937 34.5767 44.6165 34.5767 45.9091C34.5767 46.8454 34.3696 47.6989 33.9553 48.4695C33.5492 49.2401 32.9775 49.8864 32.2401 50.4084C31.5026 50.9221 30.6409 51.2784 29.6548 51.4773V51.7259C30.7486 51.7673 31.7429 52.0449 32.6378 52.5586C33.5327 53.064 34.2453 53.7642 34.7756 54.6591C35.3059 55.5457 35.571 56.5897 35.571 57.7912C35.571 59.1832 35.2064 60.422 34.4773 61.5075C33.7564 62.5929 32.7289 63.4464 31.3949 64.0678C30.0608 64.6893 28.4699 65 26.6222 65H14.6406ZM21.5511 59.4815H24.7827C25.9427 59.4815 26.8127 59.2661 27.3928 58.8352C27.9728 58.3961 28.2628 57.7498 28.2628 56.8963C28.2628 56.2997 28.1261 55.7943 27.8526 55.38C27.5792 54.9657 27.1897 54.6508 26.6843 54.4354C26.1871 54.2199 25.5864 54.1122 24.8821 54.1122H21.5511V59.4815ZM21.5511 49.8366H24.3849C24.9898 49.8366 25.5243 49.7414 25.9883 49.5508C26.4523 49.3602 26.8127 49.0868 27.0696 48.7305C27.3348 48.3659 27.4673 47.9226 27.4673 47.4006C27.4673 46.6134 27.1856 46.0127 26.6222 45.5984C26.0587 45.1758 25.3461 44.9645 24.4844 44.9645H21.5511V49.8366ZM62.1895 39.5455H70.7903L76.7065 53.9631H77.0048L82.921 39.5455H91.5218V65H84.7605V50.2841H84.5616L78.894 64.8011H74.8173L69.1497 50.1847H68.9508V65H62.1895V39.5455Z" fill="white"/>
<path d="M45.6602 59.9404C45.6602 59.3389 45.8643 58.834 46.2725 58.4258C46.7021 57.9961 47.2178 57.7812 47.8193 57.7812H52.75L51.9121 55.3965C51.5684 54.5156 51.2246 53.6885 50.8809 52.915C50.5586 52.1201 50.1826 51.4004 49.7529 50.7559C49.3662 50.1113 48.9258 49.7676 48.4316 49.7246C47.916 49.7676 47.4541 50.1113 47.0459 50.7559C46.6377 51.4004 46.2617 52.1201 45.918 52.915C45.5957 53.6885 45.2627 54.5156 44.9189 55.3965L41.8574 63.7754C41.6426 64.2266 41.3633 64.6025 41.0195 64.9033C40.6973 65.1826 40.2031 65.3223 39.5371 65.3223C38.9141 65.3223 38.3984 65.1074 37.9902 64.6777C37.6035 64.248 37.4316 63.7324 37.4746 63.1309C37.4961 62.8516 37.5605 62.5938 37.668 62.3574L41.2129 53.2051C42.2012 50.7988 43.1895 48.8545 44.1777 47.3721C45.1445 45.9111 46.5625 45.1699 48.4316 45.1484C50.2793 45.1699 51.6865 45.9111 52.6533 47.3721C53.6416 48.8115 54.6299 50.7559 55.6182 53.2051L59.1631 62.3574C59.2705 62.5938 59.335 62.8516 59.3564 63.1309C59.3994 63.7324 59.2168 64.248 58.8086 64.6777C58.4219 65.1074 57.917 65.3223 57.2939 65.3223C56.585 65.3223 56.0586 65.1826 55.7148 64.9033C55.3926 64.6025 55.124 64.2266 54.9092 63.7754L54.2969 62.0996H47.8193C47.2178 62.0996 46.7129 61.8848 46.3047 61.4551C45.875 61.0469 45.6602 60.542 45.6602 59.9404Z" fill="#FF7F4A"/>
</svg>
