<svg width="100" height="50" viewBox="0 0 81 39" fill="none" xmlns="http://www.w3.org/2000/svg">
<path d="M1.64062 32V6.54545H12.6776C14.6165 6.54545 16.2447 6.80646 17.5621 7.32848C18.8879 7.8505 19.8864 8.58795 20.5575 9.54084C21.237 10.4937 21.5767 11.6165 21.5767 12.9091C21.5767 13.8454 21.3696 14.6989 20.9553 15.4695C20.5492 16.2401 19.9775 16.8864 19.2401 17.4084C18.5026 17.9221 17.6409 18.2784 16.6548 18.4773V18.7259C17.7486 18.7673 18.7429 19.0449 19.6378 19.5586C20.5327 20.064 21.2453 20.7642 21.7756 21.6591C22.3059 22.5457 22.571 23.5897 22.571 24.7912C22.571 26.1832 22.2064 27.422 21.4773 28.5075C20.7564 29.5929 19.7289 30.4464 18.3949 31.0678C17.0608 31.6893 15.4699 32 13.6222 32H1.64062ZM8.55114 26.4815H11.7827C12.9427 26.4815 13.8127 26.2661 14.3928 25.8352C14.9728 25.3961 15.2628 24.7498 15.2628 23.8963C15.2628 23.2997 15.1261 22.7943 14.8526 22.38C14.5792 21.9657 14.1897 21.6508 13.6843 21.4354C13.1871 21.2199 12.5864 21.1122 11.8821 21.1122H8.55114V26.4815ZM8.55114 16.8366H11.3849C11.9898 16.8366 12.5243 16.7414 12.9883 16.5508C13.4523 16.3602 13.8127 16.0868 14.0696 15.7305C14.3348 15.3659 14.4673 14.9226 14.4673 14.4006C14.4673 13.6134 14.1856 13.0127 13.6222 12.5984C13.0587 12.1758 12.3461 11.9645 11.4844 11.9645H8.55114V16.8366ZM49.1895 6.54545H57.7903L63.7065 20.9631H64.0048L69.921 6.54545H78.5218V32H71.7605V17.2841H71.5616L65.894 31.8011H61.8173L56.1497 17.1847H55.9508V32H49.1895V6.54545Z" fill="white"/>
<path d="M32.6602 26.9404C32.6602 26.3389 32.8643 25.834 33.2725 25.4258C33.7021 24.9961 34.2178 24.7812 34.8193 24.7812H39.75L38.9121 22.3965C38.5684 21.5156 38.2246 20.6885 37.8809 19.915C37.5586 19.1201 37.1826 18.4004 36.7529 17.7559C36.3662 17.1113 35.9258 16.7676 35.4316 16.7246C34.916 16.7676 34.4541 17.1113 34.0459 17.7559C33.6377 18.4004 33.2617 19.1201 32.918 19.915C32.5957 20.6885 32.2627 21.5156 31.9189 22.3965L28.8574 30.7754C28.6426 31.2266 28.3633 31.6025 28.0195 31.9033C27.6973 32.1826 27.2031 32.3223 26.5371 32.3223C25.9141 32.3223 25.3984 32.1074 24.9902 31.6777C24.6035 31.248 24.4316 30.7324 24.4746 30.1309C24.4961 29.8516 24.5605 29.5938 24.668 29.3574L28.2129 20.2051C29.2012 17.7988 30.1895 15.8545 31.1777 14.3721C32.1445 12.9111 33.5625 12.1699 35.4316 12.1484C37.2793 12.1699 38.6865 12.9111 39.6533 14.3721C40.6416 15.8115 41.6299 17.7559 42.6182 20.2051L46.1631 29.3574C46.2705 29.5938 46.335 29.8516 46.3564 30.1309C46.3994 30.7324 46.2168 31.248 45.8086 31.6777C45.4219 32.1074 44.917 32.3223 44.2939 32.3223C43.585 32.3223 43.0586 32.1826 42.7148 31.9033C42.3926 31.6025 42.124 31.2266 41.9092 30.7754L41.2969 29.0996H34.8193C34.2178 29.0996 33.7129 28.8848 33.3047 28.4551C32.875 28.0469 32.6602 27.542 32.6602 26.9404Z" fill="#FF7F4A"/>
</svg>
